<mxfile host="app.diagrams.net" modified="2023-04-28T03:21:55.091Z" agent="Mozilla/5.0 (Windows NT 10.0; Win64; x64) AppleWebKit/537.36 (KHTML, like Gecko) Chrome/112.0.0.0 Safari/537.36 Edg/112.0.1722.58" etag="QHuH2wB3Zhv6yZX_ibbR" version="21.2.3" type="github">
  <diagram name="第 1 页" id="0tziWr9eTuqIwZgZHuXX">
    <mxGraphModel dx="1377" dy="796" grid="1" gridSize="10" guides="1" tooltips="1" connect="1" arrows="1" fold="1" page="1" pageScale="1" pageWidth="1169" pageHeight="827" math="0" shadow="0">
      <root>
        <mxCell id="0" />
        <mxCell id="1" parent="0" />
        <mxCell id="Z6vN_d3TJc15BrfqVS7v-4" style="edgeStyle=orthogonalEdgeStyle;rounded=0;orthogonalLoop=1;jettySize=auto;html=1;exitX=1;exitY=0.5;exitDx=0;exitDy=0;entryX=0;entryY=0.5;entryDx=0;entryDy=0;strokeWidth=1;" parent="1" source="sKSe-q3H0T9uOz00r62m-2" target="Z6vN_d3TJc15BrfqVS7v-2" edge="1">
          <mxGeometry relative="1" as="geometry" />
        </mxCell>
        <mxCell id="Z6vN_d3TJc15BrfqVS7v-8" style="edgeStyle=orthogonalEdgeStyle;rounded=0;orthogonalLoop=1;jettySize=auto;html=1;entryX=0.5;entryY=1;entryDx=0;entryDy=0;exitX=0.5;exitY=0;exitDx=0;exitDy=0;exitPerimeter=0;" parent="1" source="Z6vN_d3TJc15BrfqVS7v-7" target="sKSe-q3H0T9uOz00r62m-2" edge="1">
          <mxGeometry relative="1" as="geometry">
            <mxPoint x="290" y="385" as="sourcePoint" />
            <mxPoint x="280" y="440" as="targetPoint" />
          </mxGeometry>
        </mxCell>
        <mxCell id="sKSe-q3H0T9uOz00r62m-2" value="编译" style="rounded=0;whiteSpace=wrap;html=1;" parent="1" vertex="1">
          <mxGeometry x="250" y="280" width="60" height="50" as="geometry" />
        </mxCell>
        <mxCell id="Z6vN_d3TJc15BrfqVS7v-17" value="" style="edgeStyle=orthogonalEdgeStyle;rounded=0;orthogonalLoop=1;jettySize=auto;html=1;" parent="1" source="sKSe-q3H0T9uOz00r62m-3" target="Z6vN_d3TJc15BrfqVS7v-16" edge="1">
          <mxGeometry relative="1" as="geometry" />
        </mxCell>
        <mxCell id="Z6vN_d3TJc15BrfqVS7v-23" style="edgeStyle=orthogonalEdgeStyle;rounded=0;orthogonalLoop=1;jettySize=auto;html=1;entryX=0.625;entryY=0.2;entryDx=0;entryDy=0;entryPerimeter=0;" parent="1" source="sKSe-q3H0T9uOz00r62m-3" target="Z6vN_d3TJc15BrfqVS7v-18" edge="1">
          <mxGeometry relative="1" as="geometry">
            <Array as="points">
              <mxPoint x="580" y="360" />
              <mxPoint x="521" y="360" />
            </Array>
          </mxGeometry>
        </mxCell>
        <mxCell id="sKSe-q3H0T9uOz00r62m-3" value="部署" style="rounded=0;whiteSpace=wrap;html=1;" parent="1" vertex="1">
          <mxGeometry x="550" y="280" width="60" height="50" as="geometry" />
        </mxCell>
        <mxCell id="Z6vN_d3TJc15BrfqVS7v-3" style="edgeStyle=orthogonalEdgeStyle;rounded=0;orthogonalLoop=1;jettySize=auto;html=1;exitX=1;exitY=0.5;exitDx=0;exitDy=0;entryX=0;entryY=0.5;entryDx=0;entryDy=0;" parent="1" source="sKSe-q3H0T9uOz00r62m-4" target="sKSe-q3H0T9uOz00r62m-2" edge="1">
          <mxGeometry relative="1" as="geometry" />
        </mxCell>
        <mxCell id="sKSe-q3H0T9uOz00r62m-4" value="Git/SVN" style="rounded=0;whiteSpace=wrap;html=1;" parent="1" vertex="1">
          <mxGeometry x="60" y="280" width="110" height="50" as="geometry" />
        </mxCell>
        <mxCell id="Z6vN_d3TJc15BrfqVS7v-11" style="edgeStyle=orthogonalEdgeStyle;rounded=0;orthogonalLoop=1;jettySize=auto;html=1;exitX=1;exitY=0.5;exitDx=0;exitDy=0;entryX=0;entryY=0.5;entryDx=0;entryDy=0;" parent="1" source="Z6vN_d3TJc15BrfqVS7v-2" target="sKSe-q3H0T9uOz00r62m-3" edge="1">
          <mxGeometry relative="1" as="geometry" />
        </mxCell>
        <mxCell id="Z6vN_d3TJc15BrfqVS7v-27" style="edgeStyle=orthogonalEdgeStyle;rounded=0;orthogonalLoop=1;jettySize=auto;html=1;entryX=0.261;entryY=0.232;entryDx=0;entryDy=0;entryPerimeter=0;" parent="1" source="Z6vN_d3TJc15BrfqVS7v-2" target="Z6vN_d3TJc15BrfqVS7v-26" edge="1">
          <mxGeometry relative="1" as="geometry">
            <Array as="points">
              <mxPoint x="435" y="390" />
              <mxPoint x="650" y="390" />
              <mxPoint x="650" y="450" />
              <mxPoint x="697" y="450" />
            </Array>
          </mxGeometry>
        </mxCell>
        <mxCell id="Z6vN_d3TJc15BrfqVS7v-2" value="IAST建立项目绑定Tag" style="whiteSpace=wrap;html=1;strokeColor=#00CC00;" parent="1" vertex="1">
          <mxGeometry x="380" y="280" width="110" height="50" as="geometry" />
        </mxCell>
        <mxCell id="Z6vN_d3TJc15BrfqVS7v-5" value="" style="rounded=1;whiteSpace=wrap;html=1;dashed=1;fillColor=none;strokeWidth=0.5;" parent="1" vertex="1">
          <mxGeometry x="230" y="208" width="585" height="140" as="geometry" />
        </mxCell>
        <mxCell id="Z6vN_d3TJc15BrfqVS7v-6" value="&lt;font style=&quot;font-size: 11px;&quot;&gt;Pipeline流水线&lt;/font&gt;" style="text;html=1;align=center;verticalAlign=middle;resizable=0;points=[];autosize=1;strokeColor=none;fillColor=none;" parent="1" vertex="1">
          <mxGeometry x="457.5" y="220" width="100" height="30" as="geometry" />
        </mxCell>
        <mxCell id="Z6vN_d3TJc15BrfqVS7v-7" value="&lt;br&gt;&lt;br&gt;docker镜像仓库&lt;br&gt;（需要对镜像进行规范化管理，添加相应的环境变量）" style="strokeWidth=1;html=1;shape=mxgraph.flowchart.database;whiteSpace=wrap;" parent="1" vertex="1">
          <mxGeometry x="215" y="440" width="130" height="130" as="geometry" />
        </mxCell>
        <mxCell id="Z6vN_d3TJc15BrfqVS7v-9" value="拉取镜像&lt;br&gt;构建应用" style="text;align=center;verticalAlign=middle;resizable=0;points=[];autosize=1;strokeColor=none;fillColor=none;html=1;" parent="1" vertex="1">
          <mxGeometry x="215" y="370" width="70" height="40" as="geometry" />
        </mxCell>
        <mxCell id="Z6vN_d3TJc15BrfqVS7v-14" value="提交&lt;br&gt;代码" style="text;html=1;align=center;verticalAlign=middle;resizable=0;points=[];autosize=1;strokeColor=none;fillColor=none;" parent="1" vertex="1">
          <mxGeometry x="70" y="379" width="50" height="40" as="geometry" />
        </mxCell>
        <mxCell id="Z6vN_d3TJc15BrfqVS7v-28" style="edgeStyle=orthogonalEdgeStyle;rounded=0;orthogonalLoop=1;jettySize=auto;html=1;entryX=0.507;entryY=0.132;entryDx=0;entryDy=0;entryPerimeter=0;" parent="1" source="Z6vN_d3TJc15BrfqVS7v-16" target="Z6vN_d3TJc15BrfqVS7v-26" edge="1">
          <mxGeometry relative="1" as="geometry" />
        </mxCell>
        <mxCell id="Z6vN_d3TJc15BrfqVS7v-16" value="测试" style="whiteSpace=wrap;html=1;" parent="1" vertex="1">
          <mxGeometry x="670" y="280" width="60" height="50" as="geometry" />
        </mxCell>
        <mxCell id="Z6vN_d3TJc15BrfqVS7v-18" value="" style="ellipse;shape=cloud;whiteSpace=wrap;html=1;align=center;" parent="1" vertex="1">
          <mxGeometry x="340" y="440" width="290" height="170" as="geometry" />
        </mxCell>
        <mxCell id="Z6vN_d3TJc15BrfqVS7v-21" style="edgeStyle=orthogonalEdgeStyle;rounded=0;orthogonalLoop=1;jettySize=auto;html=1;entryX=0.5;entryY=1;entryDx=0;entryDy=0;" parent="1" source="Z6vN_d3TJc15BrfqVS7v-19" target="sKSe-q3H0T9uOz00r62m-4" edge="1">
          <mxGeometry relative="1" as="geometry" />
        </mxCell>
        <mxCell id="Z6vN_d3TJc15BrfqVS7v-33" style="edgeStyle=orthogonalEdgeStyle;rounded=0;orthogonalLoop=1;jettySize=auto;html=1;exitX=0.5;exitY=0.5;exitDx=0;exitDy=0;exitPerimeter=0;" parent="1" source="Z6vN_d3TJc15BrfqVS7v-19" edge="1">
          <mxGeometry relative="1" as="geometry">
            <mxPoint x="125.28571428571445" y="450" as="targetPoint" />
          </mxGeometry>
        </mxCell>
        <mxCell id="Z6vN_d3TJc15BrfqVS7v-19" value="开发人员" style="shape=umlActor;verticalLabelPosition=bottom;verticalAlign=top;html=1;outlineConnect=0;" parent="1" vertex="1">
          <mxGeometry x="100" y="450" width="30" height="60" as="geometry" />
        </mxCell>
        <mxCell id="Z6vN_d3TJc15BrfqVS7v-24" value="部署" style="text;html=1;align=center;verticalAlign=middle;resizable=0;points=[];autosize=1;strokeColor=none;fillColor=none;" parent="1" vertex="1">
          <mxGeometry x="570" y="340" width="50" height="30" as="geometry" />
        </mxCell>
        <mxCell id="Z6vN_d3TJc15BrfqVS7v-49" style="edgeStyle=orthogonalEdgeStyle;rounded=0;orthogonalLoop=1;jettySize=auto;html=1;exitX=0.55;exitY=0.95;exitDx=0;exitDy=0;exitPerimeter=0;entryX=0.753;entryY=0.037;entryDx=0;entryDy=0;entryPerimeter=0;" parent="1" source="Z6vN_d3TJc15BrfqVS7v-26" target="Z6vN_d3TJc15BrfqVS7v-47" edge="1">
          <mxGeometry relative="1" as="geometry" />
        </mxCell>
        <mxCell id="Z6vN_d3TJc15BrfqVS7v-26" value="IAST工具" style="ellipse;shape=cloud;whiteSpace=wrap;html=1;strokeColor=#009900;" parent="1" vertex="1">
          <mxGeometry x="670" y="487.5" width="160" height="105" as="geometry" />
        </mxCell>
        <mxCell id="Z6vN_d3TJc15BrfqVS7v-29" value="同步到&lt;br&gt;IAST" style="text;html=1;align=center;verticalAlign=middle;resizable=0;points=[];autosize=1;strokeColor=none;fillColor=none;" parent="1" vertex="1">
          <mxGeometry x="380" y="370" width="60" height="40" as="geometry" />
        </mxCell>
        <mxCell id="Z6vN_d3TJc15BrfqVS7v-30" value="安全&lt;br&gt;测试" style="text;html=1;align=center;verticalAlign=middle;resizable=0;points=[];autosize=1;strokeColor=none;fillColor=none;" parent="1" vertex="1">
          <mxGeometry x="690" y="348" width="50" height="40" as="geometry" />
        </mxCell>
        <mxCell id="Z6vN_d3TJc15BrfqVS7v-32" value="触发流水线" style="text;html=1;align=center;verticalAlign=middle;resizable=0;points=[];autosize=1;strokeColor=none;fillColor=none;" parent="1" vertex="1">
          <mxGeometry x="170" y="280" width="80" height="30" as="geometry" />
        </mxCell>
        <mxCell id="Z6vN_d3TJc15BrfqVS7v-34" value="&lt;h1&gt;应用使用流水线+K8S集群&lt;/h1&gt;" style="text;html=1;strokeColor=none;fillColor=none;spacing=5;spacingTop=-20;whiteSpace=wrap;overflow=hidden;rounded=0;" parent="1" vertex="1">
          <mxGeometry x="20" y="130" width="190" height="120" as="geometry" />
        </mxCell>
        <mxCell id="Z6vN_d3TJc15BrfqVS7v-35" value="上线" style="whiteSpace=wrap;html=1;" parent="1" vertex="1">
          <mxGeometry x="880" y="280" width="80" height="50" as="geometry" />
        </mxCell>
        <mxCell id="Z6vN_d3TJc15BrfqVS7v-55" style="edgeStyle=orthogonalEdgeStyle;rounded=0;orthogonalLoop=1;jettySize=auto;html=1;exitX=0.5;exitY=0;exitDx=0;exitDy=0;entryX=0.5;entryY=1;entryDx=0;entryDy=0;" parent="1" source="Z6vN_d3TJc15BrfqVS7v-36" target="Z6vN_d3TJc15BrfqVS7v-35" edge="1">
          <mxGeometry relative="1" as="geometry" />
        </mxCell>
        <mxCell id="Z6vN_d3TJc15BrfqVS7v-56" style="edgeStyle=orthogonalEdgeStyle;rounded=0;orthogonalLoop=1;jettySize=auto;html=1;entryX=1.007;entryY=0.577;entryDx=0;entryDy=0;entryPerimeter=0;exitX=1;exitY=0.5;exitDx=0;exitDy=0;" parent="1" source="Z6vN_d3TJc15BrfqVS7v-36" target="Z6vN_d3TJc15BrfqVS7v-51" edge="1">
          <mxGeometry relative="1" as="geometry" />
        </mxCell>
        <mxCell id="Z6vN_d3TJc15BrfqVS7v-36" value="漏洞验证" style="whiteSpace=wrap;html=1;" parent="1" vertex="1">
          <mxGeometry x="880" y="373" width="80" height="52" as="geometry" />
        </mxCell>
        <mxCell id="Z6vN_d3TJc15BrfqVS7v-37" value="K8S集群" style="text;html=1;strokeColor=none;fillColor=none;align=center;verticalAlign=middle;whiteSpace=wrap;rounded=0;" parent="1" vertex="1">
          <mxGeometry x="420" y="465" width="60" height="30" as="geometry" />
        </mxCell>
        <mxCell id="Z6vN_d3TJc15BrfqVS7v-40" style="edgeStyle=orthogonalEdgeStyle;rounded=0;orthogonalLoop=1;jettySize=auto;html=1;entryX=1;entryY=0.5;entryDx=0;entryDy=0;" parent="1" source="Z6vN_d3TJc15BrfqVS7v-38" target="Z6vN_d3TJc15BrfqVS7v-39" edge="1">
          <mxGeometry relative="1" as="geometry" />
        </mxCell>
        <mxCell id="Z6vN_d3TJc15BrfqVS7v-44" style="edgeStyle=orthogonalEdgeStyle;rounded=0;orthogonalLoop=1;jettySize=auto;html=1;entryX=0.16;entryY=0.55;entryDx=0;entryDy=0;entryPerimeter=0;" parent="1" source="Z6vN_d3TJc15BrfqVS7v-38" target="Z6vN_d3TJc15BrfqVS7v-26" edge="1">
          <mxGeometry relative="1" as="geometry" />
        </mxCell>
        <mxCell id="Z6vN_d3TJc15BrfqVS7v-38" value="webhook&lt;br&gt;server" style="ellipse;whiteSpace=wrap;html=1;strokeColor=#009900;" parent="1" vertex="1">
          <mxGeometry x="510" y="510" width="75" height="45" as="geometry" />
        </mxCell>
        <mxCell id="Z6vN_d3TJc15BrfqVS7v-39" value="应用容器" style="rounded=1;whiteSpace=wrap;html=1;" parent="1" vertex="1">
          <mxGeometry x="390" y="515" width="60" height="35" as="geometry" />
        </mxCell>
        <mxCell id="Z6vN_d3TJc15BrfqVS7v-42" value="自动插桩" style="text;html=1;strokeColor=none;fillColor=none;align=center;verticalAlign=middle;whiteSpace=wrap;rounded=0;" parent="1" vertex="1">
          <mxGeometry x="460" y="530" width="60" height="20" as="geometry" />
        </mxCell>
        <mxCell id="Z6vN_d3TJc15BrfqVS7v-46" value="同步漏&lt;br&gt;洞数据" style="text;html=1;align=center;verticalAlign=middle;resizable=0;points=[];autosize=1;strokeColor=none;fillColor=none;" parent="1" vertex="1">
          <mxGeometry x="620" y="507.5" width="60" height="40" as="geometry" />
        </mxCell>
        <mxCell id="Z6vN_d3TJc15BrfqVS7v-47" value="JIRA" style="rounded=1;whiteSpace=wrap;html=1;" parent="1" vertex="1">
          <mxGeometry x="70" y="640" width="915" height="50" as="geometry" />
        </mxCell>
        <mxCell id="Z6vN_d3TJc15BrfqVS7v-50" value="漏洞自动推送" style="text;html=1;align=center;verticalAlign=middle;resizable=0;points=[];autosize=1;strokeColor=none;fillColor=none;" parent="1" vertex="1">
          <mxGeometry x="670" y="600" width="100" height="30" as="geometry" />
        </mxCell>
        <mxCell id="Z6vN_d3TJc15BrfqVS7v-52" style="edgeStyle=orthogonalEdgeStyle;rounded=0;orthogonalLoop=1;jettySize=auto;html=1;entryX=0.5;entryY=1;entryDx=0;entryDy=0;exitX=0.929;exitY=0;exitDx=0;exitDy=0;exitPerimeter=0;" parent="1" source="Z6vN_d3TJc15BrfqVS7v-47" target="Z6vN_d3TJc15BrfqVS7v-51" edge="1">
          <mxGeometry relative="1" as="geometry" />
        </mxCell>
        <mxCell id="Z6vN_d3TJc15BrfqVS7v-54" style="edgeStyle=orthogonalEdgeStyle;rounded=0;orthogonalLoop=1;jettySize=auto;html=1;exitX=0.5;exitY=0;exitDx=0;exitDy=0;entryX=0.5;entryY=1;entryDx=0;entryDy=0;" parent="1" source="Z6vN_d3TJc15BrfqVS7v-51" target="Z6vN_d3TJc15BrfqVS7v-36" edge="1">
          <mxGeometry relative="1" as="geometry" />
        </mxCell>
        <mxCell id="Z6vN_d3TJc15BrfqVS7v-51" value="漏洞修复" style="whiteSpace=wrap;html=1;" parent="1" vertex="1">
          <mxGeometry x="880" y="480" width="80" height="50" as="geometry" />
        </mxCell>
        <mxCell id="Z6vN_d3TJc15BrfqVS7v-53" value="对应研发&lt;br&gt;进行修复" style="text;html=1;align=center;verticalAlign=middle;resizable=0;points=[];autosize=1;strokeColor=none;fillColor=none;" parent="1" vertex="1">
          <mxGeometry x="910" y="560" width="70" height="40" as="geometry" />
        </mxCell>
        <mxCell id="Z6vN_d3TJc15BrfqVS7v-57" value="未修复" style="text;html=1;align=center;verticalAlign=middle;resizable=0;points=[];autosize=1;strokeColor=none;fillColor=none;" parent="1" vertex="1">
          <mxGeometry x="980" y="440" width="60" height="30" as="geometry" />
        </mxCell>
      </root>
    </mxGraphModel>
  </diagram>
</mxfile>
